<svg style="object-fit:cover" id="my-svg" version="1" baseProfile="full" width="100%" height="100%" viewBox="0 0 1920 1080" xmlns="http://www.w3.org/2000/svg"><rect width="1920" height="1080" fill="#ffffff"></rect><path transform="scale(1, 1)" d="M 0,1080 V 0,517 C 195.39285714285717,421.9642857142857 390.78571428571433,326.92857142857144 548,354 C 705.2142857142857,381.07142857142856 824.25,530.2499999999999 950,540 C 1075.75,549.7500000000001 1208.2142857142858,420.0714285714286 1371,393 C 1533.7857142857142,365.9285714285714 1726.892857142857,441.46428571428567 1920,517 C 1920,517 1920,1080 1920,1080 Z" stroke="none" stroke-width="0" fill="#ca80f580" class="transition-all duration-300 ease-in-out delay-150" style="transform-origin: center center;"></path><path transform="scale(1, 1)" d="M 0,1080 V 0,776 C 198.39285714285717,735.7857142857142 396.78571428571433,695.5714285714286 538,723 C 679.2142857142857,750.4285714285714 763.25,845.5 895,869 C 1026.75,892.5 1206.2142857142856,844.4285714285713 1385,817 C 1563.7857142857144,789.5714285714287 1741.8928571428573,782.7857142857143 1920,776 C 1920,776 1920,1080 1920,1080 Z" stroke="none" stroke-width="0" fill="#ca80f590" class="transition-all duration-300 ease-in-out delay-150" style="transform-origin: center center;"></path><path transform="scale(1, 1)" d="M 0,1080 V 0,1165 C 167.35714285714283,1222.3214285714284 334.71428571428567,1279.642857142857 494,1268 C 653.2857142857143,1256.357142857143 804.5,1175.7499999999998 953,1104 C 1101.5,1032.2500000000002 1247.2857142857144,969.3571428571429 1408,981 C 1568.7142857142856,992.6428571428571 1744.3571428571427,1078.8214285714284 1920,1165 C 1920,1165 1920,1080 1920,1080 Z" stroke="none" stroke-width="0" fill="#ca80f5ff" class="transition-all duration-300 ease-in-out delay-150" style="transform-origin: center center;"></path></svg>